<?xml version="1.0" encoding="UTF-8"?>
<svg xmlns="http://www.w3.org/2000/svg" viewBox="27 -61 280 280">
  <defs>
    <style>
      .cls-2 { fill: #1392a5; }
    </style>
  </defs>
  <path class="cls-2" d="M50.06,105.16V54.01c0-2.17,.64-3.87,1.91-5.12,1.27-1.25,2.89-1.87,4.86-1.87s3.61,.61,4.86,1.82c1.25,1.22,1.87,2.94,1.87,5.16v19.07h28.3v-19.07c0-2.17,.64-3.87,1.91-5.12,1.27-1.25,2.88-1.87,4.84-1.87s3.64,.61,4.88,1.82c1.24,1.22,1.86,2.94,1.86,5.16v51.15c0,2.23-.62,3.95-1.86,5.16-1.24,1.22-2.87,1.82-4.88,1.82s-3.57-.62-4.84-1.87c-1.27-1.25-1.91-2.95-1.91-5.12v-19.64h-28.3v19.64c0,2.23-.62,3.95-1.87,5.16-1.25,1.22-2.86,1.82-4.86,1.82s-3.58-.62-4.86-1.87c-1.27-1.25-1.91-2.95-1.91-5.12Z"/>
  <g transform="translate(-100, 0)">
    <path class="cls-2" d="M230.64,105.16l-11.43-49.17c-.26-.97-.39-1.98-.39-3.03,0-1.55,.6-2.93,1.8-4.13,1.2-1.2,2.74-1.8,4.62-1.8,3.9,0,6.3,2.15,7.21,6.46l7.65,38.23h.18l11.69-39.42c.53-1.64,1.42-2.93,2.68-3.87,1.26-.94,2.71-1.41,4.35-1.41s3.1,.47,4.37,1.41c1.27,.94,2.16,2.23,2.66,3.87l11.69,39.42h.18l7.65-38.23c.41-2.11,1.19-3.71,2.33-4.81s2.77-1.65,4.88-1.65c1.9,0,3.44,.6,4.61,1.8,1.17,1.2,1.76,2.58,1.76,4.13,0,1-.12,2.01-.35,3.03l-11.43,49.17c-.47,2.02-1.47,3.69-3.01,5.01s-3.51,1.98-5.91,1.98c-2.14,0-4.01-.62-5.62-1.85-1.61-1.23-2.71-2.8-3.3-4.7l-10.41-34.76h-.18l-10.46,34.76c-.56,1.9-1.64,3.47-3.25,4.7-1.61,1.23-3.5,1.85-5.67,1.85-2.37,0-4.33-.66-5.87-1.98s-2.54-2.99-3.01-5.01Z"/>
  </g>
  <g transform="translate(-200, 0)">
    <path class="cls-2" d="M435.16,46.45c2.05,0,4.48,.29,7.27,.88,2.8,.59,5.22,1.56,7.27,2.92,2.05,1.36,3.08,3.1,3.08,5.21,0,1.85-.56,3.42-1.67,4.72-1.11,1.3-2.56,1.96-4.35,1.96-.82,0-1.71-.15-2.66-.46-.95-.31-1.93-.65-2.94-1.03-1.01-.38-2.02-.68-3.03-.9s-2.12-.33-3.32-.33c-2.02,0-3.76,.53-5.21,1.58s-2.18,2.48-2.18,4.26c0,1.93,1.63,3.48,4.9,4.64,3.27,1.16,6.9,2.4,10.9,3.71s7.38,3.36,10.13,6.13,4.13,6.79,4.13,12.06c0,4.1-1.04,7.75-3.12,10.94-2.08,3.19-4.88,5.65-8.39,7.38s-7.35,2.59-11.51,2.59c-5.13,0-10.06-.75-14.79-2.26-4.73-1.51-7.1-4.12-7.1-7.84,0-1.82,.55-3.33,1.65-4.55,1.1-1.22,2.56-1.82,4.37-1.82,.88,0,1.85,.15,2.9,.44,1.05,.29,2.4,.73,4.04,1.3,1.64,.57,3.08,1.01,4.31,1.32s2.52,.46,3.87,.46c1.93,0,3.59-.33,4.96-.99s2.42-1.57,3.14-2.75c.72-1.17,1.08-2.5,1.08-4,0-2.29-.8-3.78-2.39-4.48-1.6-.7-5.27-1.96-11.01-3.78-5.74-1.82-9.95-3.91-12.63-6.28s-4.02-5.9-4.02-10.59c0-4.1,1.02-7.7,3.05-10.79,2.04-3.09,4.77-5.47,8.2-7.14s7.12-2.5,11.07-2.5Z"/>
  </g>
</svg>