<svg width="24" height="25" viewBox="0 0 24 25" fill="none" xmlns="http://www.w3.org/2000/svg">
<path fill-rule="evenodd" clip-rule="evenodd" d="M12 1.49215C5.67729 1.49215 0.551724 6.61772 0.551724 12.9404C0.551724 19.2631 5.67729 24.3887 12 24.3887C18.3227 24.3887 23.4483 19.2631 23.4483 12.9404C23.4483 6.61772 18.3227 1.49215 12 1.49215ZM0 12.9404C0 6.31301 5.37258 0.94043 12 0.94043C18.6274 0.94043 24 6.31301 24 12.9404C24 19.5678 18.6274 24.9404 12 24.9404C5.37258 24.9404 0 19.5678 0 12.9404Z" fill="#898989"/>
<path fill-rule="evenodd" clip-rule="evenodd" d="M11.7027 9.2869C11.2857 9.78441 11.0601 10.5535 11.0601 11.6288V12.501H9.51754V13.5882H11.0601V17.6303H12.3651V13.8641H12.641V13.5918H13.9832L14.3574 12.5046H12.3651V11.6503C12.3651 11.0058 12.4753 10.4797 12.7653 10.1477C12.8946 9.99952 13.042 9.87489 13.2338 9.7905C13.4238 9.7069 13.6383 9.67118 13.8907 9.67118C14.1535 9.67118 14.3022 9.68813 14.4683 9.71663V8.63757C14.4619 8.63575 14.4556 8.63393 14.4493 8.63212C14.2438 8.57286 14.0841 8.52682 13.6658 8.52682C12.7438 8.52682 12.1117 8.79878 11.7027 9.2869ZM12.9169 14.1435V18.182H10.5084V14.14H8.96582V11.9493H10.5084V11.6288C10.5084 10.4903 10.7451 9.5705 11.2798 8.93252C11.8223 8.28517 12.6311 7.9751 13.6658 7.9751C14.1663 7.9751 14.3993 8.04254 14.6187 8.10606C14.681 8.12411 14.7423 8.14185 14.8083 8.15763L15.02 8.20825V10.3753L14.6966 10.3188C14.6227 10.3059 14.5604 10.2943 14.5053 10.2841C14.2785 10.2422 14.1742 10.2229 13.8907 10.2229C13.6897 10.2229 13.5561 10.2515 13.456 10.2955C13.3576 10.3388 13.2729 10.4052 13.1809 10.5106C13.028 10.6856 12.9169 11.0378 12.9169 11.6503V11.9529H15.1308L14.3767 14.1435H12.9169Z" fill="#898989"/>
</svg>
