<svg width="25" height="25" viewBox="0 0 25 25" fill="none" xmlns="http://www.w3.org/2000/svg">
<path fill-rule="evenodd" clip-rule="evenodd" d="M12.0654 1.49215C5.74272 1.49215 0.617154 6.61772 0.617154 12.9404C0.617154 19.2631 5.74272 24.3887 12.0654 24.3887C18.3881 24.3887 23.5137 19.2631 23.5137 12.9404C23.5137 6.61772 18.3881 1.49215 12.0654 1.49215ZM0.0654297 12.9404C0.0654297 6.31301 5.43801 0.94043 12.0654 0.94043C18.6928 0.94043 24.0654 6.31301 24.0654 12.9404C24.0654 19.5678 18.6928 24.9404 12.0654 24.9404C5.43801 24.9404 0.0654297 19.5678 0.0654297 12.9404Z" fill="#898989"/>
<path fill-rule="evenodd" clip-rule="evenodd" d="M7.125 11.1499H9.69423V18.1353H7.125V11.1499ZM7.67672 11.7016V17.5836H9.1425V11.7016H7.67672Z" fill="#898989"/>
<path fill-rule="evenodd" clip-rule="evenodd" d="M12.8413 11.5926C13.2191 11.2794 13.8156 10.9578 14.6547 10.9923L14.6571 10.9924L14.6638 10.9928C14.7392 10.9972 14.825 11.0023 14.9077 11.0125C15.6059 11.0886 16.1808 11.3605 16.5785 11.8336C16.9748 12.3049 17.1691 12.9448 17.1691 13.7085V18.182H14.5999V14.1548C14.5999 14.124 14.5946 13.9047 14.483 13.7021C14.4295 13.6049 14.3535 13.515 14.2429 13.4482C14.1327 13.3817 13.9728 13.3289 13.7368 13.3289C13.4459 13.3289 13.2118 13.454 13.0813 13.6882C12.9248 13.9751 12.9267 14.3033 12.929 14.7049C12.9293 14.7544 12.9296 14.8049 12.9296 14.8567V18.1541H10.3604V11.1687H12.8413V11.5926ZM12.8723 12.3473C12.8458 12.382 12.827 12.4088 12.8155 12.4259C12.8096 12.4345 12.8057 12.4407 12.8034 12.4442L12.8014 12.4474C12.8013 12.4476 12.8013 12.4476 12.8013 12.4475L12.8014 12.4474L12.2895 13.3005V11.7204H10.9121V17.6024H12.3779V14.8567C12.3779 14.8103 12.3773 14.7618 12.3767 14.7117C12.3724 14.3278 12.3669 13.8448 12.5976 13.4228L12.5985 13.4211C12.84 12.9865 13.2751 12.7771 13.7368 12.7771C14.0587 12.7771 14.3201 12.8504 14.528 12.9759C14.7355 13.1012 14.8745 13.2692 14.9663 13.4359C15.1453 13.761 15.1516 14.0926 15.1516 14.1547V17.6303H16.6174V13.7085C16.6174 13.0357 16.4468 12.5343 16.1562 12.1886C15.8676 11.8453 15.4345 11.6245 14.846 11.5608L14.8438 11.5605L14.8415 11.5603C14.7784 11.5524 14.7095 11.5482 14.6296 11.5435C13.6309 11.5033 13.0707 12.0913 12.8723 12.3473Z" fill="#898989"/>
<path fill-rule="evenodd" clip-rule="evenodd" d="M8.40923 8.52682C7.91461 8.52682 7.51364 8.92779 7.51364 9.42241C7.51364 9.91703 7.91461 10.318 8.40923 10.318C8.90385 10.318 9.30482 9.91703 9.30482 9.42241C9.30482 8.92779 8.90385 8.52682 8.40923 8.52682ZM6.96191 9.42241C6.96191 8.62308 7.6099 7.9751 8.40923 7.9751C9.20855 7.9751 9.85654 8.62308 9.85654 9.42241C9.85654 10.2217 9.20855 10.8697 8.40923 10.8697C7.6099 10.8697 6.96191 10.2217 6.96191 9.42241Z" fill="#898989"/>
</svg>
