<?xml version="1.0" encoding="UTF-8"?>
<svg id="Layer_1" data-name="Layer 1" xmlns="http://www.w3.org/2000/svg" viewBox="0 0 507.64 209.28">
  <defs>
    <style>
      .cls-1 {
        fill: #030303;
      }

      .cls-2 {
        fill: #1392a5;
      }
    </style>
  </defs>
  <g>
    <path class="cls-1" d="M51.64,160h9.13v1.32h-10.7v-18.48h1.57v17.16Z"/>
    <path class="cls-1" d="M94.31,156.13h-8.39l-1.9,5.19h-1.64l7-18.48h1.48l7,18.48h-1.62l-1.92-5.19Zm-7.91-1.32h7.41l-3.71-10.07-3.71,10.07Z"/>
    <path class="cls-1" d="M120.91,161.32v-18.48h5.46c1.98,0,3.48,.41,4.51,1.23,1.02,.82,1.54,2.02,1.54,3.61,0,.96-.26,1.79-.78,2.5-.52,.71-1.23,1.21-2.14,1.52,1.07,.24,1.94,.77,2.6,1.59,.66,.82,.98,1.77,.98,2.84,0,1.63-.53,2.91-1.58,3.83-1.05,.92-2.52,1.38-4.4,1.38h-6.18Zm1.56-10.19h4.27c1.3-.03,2.31-.33,3.03-.92s1.07-1.45,1.07-2.58c0-1.19-.37-2.06-1.11-2.63-.74-.56-1.86-.85-3.36-.85h-3.9v6.97Zm0,1.32v7.55h4.69c1.34,0,2.4-.34,3.18-1.02s1.17-1.62,1.17-2.83c0-1.14-.37-2.04-1.12-2.71-.75-.66-1.78-1-3.1-1h-4.81Z"/>
    <path class="cls-1" d="M170.83,153.08c0,1.7-.29,3.19-.88,4.48s-1.43,2.28-2.52,2.97-2.35,1.04-3.78,1.04c-2.16,0-3.9-.77-5.23-2.32-1.33-1.54-1.99-3.63-1.99-6.25v-1.9c0-1.68,.3-3.18,.89-4.48s1.44-2.3,2.53-3,2.35-1.05,3.77-1.05,2.68,.34,3.76,1.03,1.93,1.65,2.52,2.91c.59,1.25,.9,2.7,.93,4.35v2.21Zm-1.56-2.01c0-2.23-.5-3.97-1.51-5.23-1.01-1.26-2.39-1.89-4.14-1.89s-3.09,.63-4.11,1.9-1.53,3.03-1.53,5.3v1.93c0,2.19,.51,3.93,1.52,5.21s2.4,1.92,4.14,1.92,3.15-.63,4.14-1.9,1.49-3.03,1.49-5.29v-1.96Z"/>
    <path class="cls-1" d="M202,153.61h-5.37v7.71h-1.57v-18.48h6c1.97,0,3.51,.48,4.62,1.43,1.11,.96,1.66,2.29,1.66,4.01,0,1.18-.35,2.23-1.04,3.13-.69,.9-1.62,1.53-2.79,1.88l4.62,7.87v.17h-1.66l-4.47-7.71Zm-5.37-1.32h4.79c1.31,0,2.37-.37,3.16-1.12,.79-.75,1.19-1.71,1.19-2.9,0-1.31-.42-2.32-1.24-3.04-.83-.72-1.99-1.08-3.49-1.08h-4.4v8.14Z"/>
    <path class="cls-1" d="M243.46,144.15h-6.33v17.16h-1.56v-17.16h-6.32v-1.32h14.22v1.32Z"/>
    <path class="cls-1" d="M276.98,152.46h-8.65v7.54h9.94v1.32h-11.5v-18.48h11.44v1.32h-9.88v6.98h8.65v1.32Z"/>
    <path class="cls-1" d="M314.99,155.55c-.21,1.95-.91,3.44-2.09,4.47s-2.75,1.55-4.72,1.55c-1.37,0-2.58-.34-3.64-1.03s-1.87-1.66-2.44-2.91c-.58-1.26-.87-2.69-.88-4.31v-2.4c0-1.64,.29-3.1,.86-4.37,.58-1.27,1.4-2.25,2.48-2.94s2.32-1.03,3.73-1.03c1.98,0,3.54,.53,4.69,1.6s1.81,2.54,2,4.43h-1.57c-.39-3.14-2.1-4.71-5.12-4.71-1.68,0-3.01,.63-4,1.88-1,1.25-1.49,2.99-1.49,5.2v2.26c0,2.13,.48,3.84,1.45,5.11s2.28,1.91,3.93,1.91,2.86-.39,3.69-1.17c.83-.78,1.34-1.96,1.54-3.52h1.57Z"/>
    <path class="cls-1" d="M352.81,161.32h-1.57v-8.86h-10.56v8.86h-1.56v-18.48h1.56v8.3h10.56v-8.3h1.57v18.48Z"/>
    <path class="cls-1" d="M391.6,161.32h-1.56l-10.63-15.82v15.82h-1.57v-18.48h1.57l10.64,15.83v-15.83h1.55v18.48Z"/>
    <path class="cls-1" d="M418.54,161.32h-1.56v-18.48h1.56v18.48Z"/>
    <path class="cls-1" d="M448.05,152.14l-2.6,2.56v6.61h-1.56v-18.48h1.56v9.97l9.47-9.97h1.97l-7.74,8.23,8.34,10.26h-1.9l-7.53-9.18Z"/>
  </g>
  <path class="cls-2" d="M50.06,105.16V54.01c0-2.17,.64-3.87,1.91-5.12,1.27-1.25,2.89-1.87,4.86-1.87s3.61,.61,4.86,1.82c1.25,1.22,1.87,2.94,1.87,5.16v19.07h28.3v-19.07c0-2.17,.64-3.87,1.91-5.12,1.27-1.25,2.88-1.87,4.84-1.87s3.64,.61,4.88,1.82c1.24,1.22,1.86,2.94,1.86,5.16v51.15c0,2.23-.62,3.95-1.86,5.16-1.24,1.22-2.87,1.82-4.88,1.82s-3.57-.62-4.84-1.87c-1.27-1.25-1.91-2.95-1.91-5.12v-19.64h-28.3v19.64c0,2.23-.62,3.95-1.87,5.16-1.25,1.22-2.86,1.82-4.86,1.82s-3.58-.62-4.86-1.87c-1.27-1.25-1.91-2.95-1.91-5.12Z"/>
  <path class="cls-2" d="M230.64,105.16l-11.43-49.17c-.26-.97-.39-1.98-.39-3.03,0-1.55,.6-2.93,1.8-4.13,1.2-1.2,2.74-1.8,4.62-1.8,3.9,0,6.3,2.15,7.21,6.46l7.65,38.23h.18l11.69-39.42c.53-1.64,1.42-2.93,2.68-3.87,1.26-.94,2.71-1.41,4.35-1.41s3.1,.47,4.37,1.41c1.27,.94,2.16,2.23,2.66,3.87l11.69,39.42h.18l7.65-38.23c.41-2.11,1.19-3.71,2.33-4.81s2.77-1.65,4.88-1.65c1.9,0,3.44,.6,4.61,1.8,1.17,1.2,1.76,2.58,1.76,4.13,0,1-.12,2.01-.35,3.03l-11.43,49.17c-.47,2.02-1.47,3.69-3.01,5.01s-3.51,1.98-5.91,1.98c-2.14,0-4.01-.62-5.62-1.85-1.61-1.23-2.71-2.8-3.3-4.7l-10.41-34.76h-.18l-10.46,34.76c-.56,1.9-1.64,3.47-3.25,4.7-1.61,1.23-3.5,1.85-5.67,1.85-2.37,0-4.33-.66-5.87-1.98s-2.54-2.99-3.01-5.01Z"/>
  <path class="cls-2" d="M435.16,46.45c2.05,0,4.48,.29,7.27,.88,2.8,.59,5.22,1.56,7.27,2.92,2.05,1.36,3.08,3.1,3.08,5.21,0,1.85-.56,3.42-1.67,4.72-1.11,1.3-2.56,1.96-4.35,1.96-.82,0-1.71-.15-2.66-.46-.95-.31-1.93-.65-2.94-1.03-1.01-.38-2.02-.68-3.03-.9s-2.12-.33-3.32-.33c-2.02,0-3.76,.53-5.21,1.58s-2.18,2.48-2.18,4.26c0,1.93,1.63,3.48,4.9,4.64,3.27,1.16,6.9,2.4,10.9,3.71s7.38,3.36,10.13,6.13,4.13,6.79,4.13,12.06c0,4.1-1.04,7.75-3.12,10.94-2.08,3.19-4.88,5.65-8.39,7.38s-7.35,2.59-11.51,2.59c-5.13,0-10.06-.75-14.79-2.26-4.73-1.51-7.1-4.12-7.1-7.84,0-1.82,.55-3.33,1.65-4.55,1.1-1.22,2.56-1.82,4.37-1.82,.88,0,1.85,.15,2.9,.44,1.05,.29,2.4,.73,4.04,1.3,1.64,.57,3.08,1.01,4.31,1.32s2.52,.46,3.87,.46c1.93,0,3.59-.33,4.96-.99s2.42-1.57,3.14-2.75c.72-1.17,1.08-2.5,1.08-4,0-2.29-.8-3.78-2.39-4.48-1.6-.7-5.27-1.96-11.01-3.78-5.74-1.82-9.95-3.91-12.63-6.28s-4.02-5.9-4.02-10.59c0-4.1,1.02-7.7,3.05-10.79,2.04-3.09,4.77-5.47,8.2-7.14s7.12-2.5,11.07-2.5Z"/>
  <polygon class="cls-1" points="148.13 79.59 148.13 63.48 162.08 71.53 176.03 79.59 162.08 87.64 148.13 95.69 148.13 79.59"/>
  <polygon class="cls-1" points="341.89 79.59 341.89 63.48 355.84 71.53 369.79 79.59 355.84 87.64 341.89 95.69 341.89 79.59"/>
</svg>