<svg width="139" height="57" viewBox="0 0 139 57" fill="none" xmlns="http://www.w3.org/2000/svg">
<g clip-path="url(#clip0_2632_8461)">
<path d="M119.849 36.6546C114.981 36.6546 110.404 34.7602 106.967 31.3168C103.618 27.9706 99.1718 26.1299 94.4409 26.1299C89.71 26.1299 85.264 27.9706 81.9145 31.3168C78.4711 34.7602 73.8977 36.6546 69.0327 36.6546C64.1676 36.6546 59.5909 34.7602 56.1509 31.3168C52.8047 27.9706 48.3588 26.1299 43.6245 26.1299C38.8902 26.1299 34.4476 27.9706 31.0981 31.3168C27.658 34.7602 23.0847 36.6546 18.2163 36.6546C8.171 36.6546 0 28.4803 0 18.435C0 8.38975 8.171 0.21875 18.2163 0.21875C23.0411 0.21875 27.5909 2.08631 31.021 5.47944C31.0712 5.52638 31.1249 5.58002 31.1752 5.63032C34.5147 8.92621 38.9338 10.7435 43.6245 10.7435C48.3152 10.7435 52.7376 8.92621 56.0738 5.63032C56.1274 5.58002 56.1743 5.53308 56.2213 5.48614C59.6647 2.08631 64.2112 0.21875 69.0327 0.21875C73.8541 0.21875 78.4007 2.08631 81.8374 5.47944C81.8877 5.52638 81.9413 5.58002 81.9916 5.63032C85.3311 8.92621 89.7502 10.7435 94.4409 10.7435C99.1316 10.7435 103.551 8.92621 106.89 5.63032C106.94 5.58002 106.994 5.52638 107.048 5.47608C110.474 2.08966 115.021 0.222103 119.846 0.222103C129.891 0.222103 138.062 8.3931 138.062 18.4384C138.062 28.4836 129.891 36.658 119.846 36.658L119.849 36.6546ZM94.4409 25.627C99.3059 25.627 103.879 27.5213 107.323 30.9614C110.666 34.3076 115.115 36.1517 119.849 36.1517C129.616 36.1517 137.562 28.2053 137.562 18.435C137.562 8.66469 129.616 0.721684 119.849 0.721684C115.155 0.721684 110.736 2.53895 107.4 5.83484C107.343 5.88849 107.296 5.93543 107.246 5.98572C103.812 9.37885 99.2624 11.2464 94.4409 11.2464C89.6194 11.2464 85.0729 9.37885 81.6362 5.98572C81.5859 5.93543 81.539 5.88849 81.4853 5.8382C78.1425 2.5356 73.72 0.718331 69.0293 0.718331C64.3386 0.718331 59.9195 2.5356 56.58 5.83149C56.523 5.88849 56.4728 5.93543 56.4225 5.98572C52.9958 9.37214 48.4493 11.2397 43.6245 11.2397C38.7997 11.2397 34.2565 9.37214 30.8198 5.97902C30.7695 5.92872 30.7225 5.88178 30.6689 5.83149C27.3294 2.53895 22.9103 0.721684 18.2163 0.721684C8.44929 0.721684 0.502934 8.66804 0.502934 18.435C0.502934 28.202 8.44929 36.1517 18.2163 36.1517C22.9505 36.1517 27.3998 34.3076 30.7427 30.9614C34.1861 27.5213 38.7594 25.627 43.6245 25.627C48.4895 25.627 53.0662 27.5213 56.5063 30.9614C59.8525 34.3076 64.3018 36.1517 69.0327 36.1517C73.7636 36.1517 78.2129 34.3076 81.5591 30.9614C85.0025 27.5213 89.5792 25.627 94.4409 25.627Z" fill="white"/>
<path d="M1.57328 55.6891H4.63447V56.1317H1.04688V49.9355H1.57328V55.6891Z" fill="white"/>
<path d="M15.8828 54.3915H13.0697L12.4327 56.1317H11.8828L14.2298 49.9355H14.7294L17.0764 56.1317H16.5333L15.8895 54.3915H15.8828ZM13.2307 53.949H15.7152L14.4712 50.5726L13.2273 53.949H13.2307Z" fill="white"/>
<path d="M24.7969 56.1317V49.9355H26.6276C27.2914 49.9355 27.7944 50.073 28.1397 50.348C28.4817 50.6229 28.6561 51.0252 28.6561 51.5583C28.6561 51.8802 28.5689 52.1585 28.3945 52.3966C28.2202 52.6346 27.9821 52.8023 27.677 52.9062C28.0358 52.9867 28.3275 53.1644 28.5488 53.4393C28.7701 53.7143 28.8773 54.0328 28.8773 54.3915C28.8773 54.9381 28.6996 55.3672 28.3476 55.6757C27.9955 55.9842 27.5027 56.1384 26.8723 56.1384H24.8002L24.7969 56.1317ZM25.3199 52.7151H26.7516C27.1875 52.705 27.5261 52.6044 27.7675 52.4066C28.0089 52.2088 28.1263 51.9205 28.1263 51.5416C28.1263 51.1426 28.0022 50.8509 27.7541 50.6598C27.506 50.472 27.1305 50.3748 26.6276 50.3748H25.3199V52.7117V52.7151ZM25.3199 53.1577V55.6891H26.8891C27.3384 55.6891 27.6938 55.5751 27.9553 55.3471C28.2168 55.1191 28.3476 54.8039 28.3476 54.3982C28.3476 54.016 28.2202 53.7143 27.9721 53.4896C27.7206 53.2683 27.3752 53.1543 26.9327 53.1543H25.3199V53.1577Z" fill="white"/>
<path d="M41.5352 53.3696C41.5352 53.9396 41.438 54.4392 41.2401 54.8717C41.0423 55.3042 40.7607 55.6361 40.3952 55.8675C40.0297 56.0988 39.6073 56.2162 39.1278 56.2162C38.4036 56.2162 37.8202 55.958 37.3743 55.4383C36.9283 54.922 36.707 54.2212 36.707 53.3428V52.7057C36.707 52.1424 36.8076 51.6395 37.0054 51.2036C37.2033 50.7677 37.4883 50.4325 37.8537 50.1978C38.2192 49.9631 38.6416 49.8457 39.1178 49.8457C39.5939 49.8457 40.0163 49.9597 40.3784 50.1911C40.7439 50.4224 41.0256 50.7443 41.2234 51.1667C41.4212 51.5859 41.5251 52.072 41.5352 52.6253V53.3662V53.3696ZM41.0121 52.6957C41.0121 51.948 40.8445 51.3646 40.5059 50.9421C40.1672 50.5196 39.7045 50.3084 39.1178 50.3084C38.531 50.3084 38.0817 50.5196 37.7397 50.9455C37.3977 51.3713 37.2267 51.9614 37.2267 52.7225V53.3696C37.2267 54.1039 37.3977 54.6873 37.7364 55.1164C38.075 55.5456 38.5377 55.7602 39.1245 55.7602C39.7112 55.7602 40.1806 55.549 40.5126 55.1232C40.8445 54.6973 41.0121 54.1072 41.0121 53.3495V52.6923V52.6957Z" fill="white"/>
<path d="M51.9871 53.5505H50.1866V56.1356H49.6602V49.9395H51.6719C52.3324 49.9395 52.8488 50.1004 53.2209 50.4189C53.5931 50.7408 53.7775 51.1867 53.7775 51.7634C53.7775 52.1591 53.6602 52.5111 53.4288 52.8129C53.1975 53.1146 52.8856 53.3259 52.4933 53.4432L54.0424 56.082V56.139H53.4858L51.9871 53.5539V53.5505ZM50.1866 53.1079H51.7926C52.2318 53.1079 52.5872 52.9839 52.8521 52.7324C53.117 52.4809 53.2511 52.1591 53.2511 51.7601C53.2511 51.3208 53.1103 50.9822 52.8353 50.7408C52.5571 50.4994 52.1681 50.3787 51.6652 50.3787H50.1866V53.1079Z" fill="white"/>
<path d="M65.8895 50.3781H63.7671V56.1317H63.244V50.3781H61.125V49.9355H65.8928V50.3781H65.8895Z" fill="white"/>
<path d="M77.1264 53.161H74.2262V55.6891H77.559V56.1317H73.7031V49.9355H77.5388V50.3781H74.2262V52.7184H77.1264V53.161Z" fill="white"/>
<path d="M89.8708 54.2003C89.8004 54.8541 89.5657 55.3537 89.1701 55.699C88.7744 56.0444 88.248 56.2187 87.5875 56.2187C87.1282 56.2187 86.7225 56.1047 86.3671 55.8734C86.0117 55.642 85.7401 55.3168 85.549 54.8977C85.3545 54.4752 85.2573 53.9957 85.2539 53.4526V52.6479C85.2539 52.098 85.3511 51.6085 85.5423 51.1827C85.7367 50.7568 86.0117 50.4283 86.3738 50.1969C86.7359 49.9656 87.1516 49.8516 87.6244 49.8516C88.2883 49.8516 88.8113 50.0293 89.1969 50.388C89.5825 50.7468 89.8038 51.2397 89.8675 51.8734H89.3411C89.2103 50.8205 88.6403 50.2941 87.6244 50.2941C87.0611 50.2941 86.6152 50.5054 86.2799 50.9245C85.9479 51.3436 85.7803 51.927 85.7803 52.668V53.4257C85.7803 54.1399 85.9413 54.7133 86.2665 55.1391C86.5917 55.5649 87.0309 55.7795 87.5842 55.7795C88.1374 55.7795 88.5431 55.6487 88.8214 55.3872C89.0997 55.1257 89.2707 54.73 89.3377 54.207H89.8641L89.8708 54.2003Z" fill="white"/>
<path d="M102.551 56.1317H102.025V53.161H98.484V56.1317H97.9609V49.9355H98.484V52.7184H102.025V49.9355H102.551V56.1317Z" fill="white"/>
<path d="M115.559 56.1317H115.036L111.472 50.8274V56.1317H110.945V49.9355H111.472L115.039 55.2432V49.9355H115.559V56.1317Z" fill="white"/>
<path d="M124.589 56.1317H124.066V49.9355H124.589V56.1317Z" fill="white"/>
<path d="M134.485 53.0551L133.613 53.9135V56.1297H133.09V49.9336H133.613V53.2764L136.788 49.9336H137.449L134.853 52.693L137.65 56.1331H137.013L134.488 53.0551H134.485Z" fill="white"/>
<path d="M22.982 24.6339H21.3391V18.9038H15.0893V24.6339H13.4531V12.2383H15.0893V17.566H21.3391V12.2383H22.982V24.6339Z" fill="white"/>
<path d="M65.337 20.7245L65.5751 22.3607L65.9238 20.8887L68.3748 12.2383H69.7528L72.1434 20.8887L72.4854 22.3875L72.7503 20.7177L74.6748 12.2383H76.3178L73.3136 24.6339H71.8249L69.27 15.6012L69.0755 14.6557L68.881 15.6012L66.2323 24.6339H64.7436L61.7461 12.2383H63.3823L65.3404 20.7245H65.337Z" fill="white"/>
<path d="M119.753 19.1094C118.352 18.7071 117.333 18.2109 116.692 17.6241C116.052 17.0373 115.733 16.3131 115.733 15.4481C115.733 14.4724 116.122 13.6643 116.903 13.0273C117.685 12.3902 118.697 12.0684 119.948 12.0684C120.799 12.0684 121.557 12.2327 122.224 12.5612C122.892 12.8898 123.408 13.3458 123.773 13.9225C124.139 14.4992 124.323 15.1329 124.323 15.8202H122.68C122.68 15.0692 122.442 14.4791 121.966 14.0466C121.49 13.6174 120.816 13.4028 119.948 13.4028C119.143 13.4028 118.513 13.5805 118.064 13.9359C117.611 14.2913 117.386 14.7842 117.386 15.4145C117.386 15.9208 117.601 16.35 118.03 16.6987C118.459 17.0474 119.187 17.3693 120.219 17.6576C121.252 17.946 122.057 18.2679 122.637 18.6166C123.217 18.9653 123.649 19.3743 123.931 19.837C124.213 20.3031 124.354 20.8496 124.354 21.4799C124.354 22.4858 123.961 23.2905 123.18 23.894C122.399 24.4975 121.349 24.7993 120.038 24.7993C119.187 24.7993 118.392 24.635 117.654 24.3098C116.917 23.9845 116.347 23.5352 115.948 22.9686C115.549 22.402 115.348 21.7582 115.348 21.0373H116.991C116.991 21.785 117.269 22.3785 117.822 22.811C118.375 23.2435 119.113 23.4615 120.038 23.4615C120.9 23.4615 121.561 23.2871 122.023 22.9351C122.483 22.583 122.714 22.1036 122.714 21.4967C122.714 20.8898 122.503 20.4204 122.077 20.0885C121.651 19.7565 120.88 19.428 119.76 19.1061L119.753 19.1094Z" fill="white"/>
</g>
<defs>
<clipPath id="clip0_2632_8461">
<rect width="138.065" height="56" fill="white" transform="translate(0 0.21875)"/>
</clipPath>
</defs>
</svg>
