<svg width="25" height="25" viewBox="0 0 25 25" fill="none" xmlns="http://www.w3.org/2000/svg">
<path fill-rule="evenodd" clip-rule="evenodd" d="M12.0322 1.49215C5.70952 1.49215 0.583951 6.61772 0.583951 12.9404C0.583951 19.2631 5.70952 24.3887 12.0322 24.3887C18.3549 24.3887 23.4805 19.2631 23.4805 12.9404C23.4805 6.61772 18.3549 1.49215 12.0322 1.49215ZM0.0322266 12.9404C0.0322266 6.31301 5.40481 0.94043 12.0322 0.94043C18.6596 0.94043 24.0322 6.31301 24.0322 12.9404C24.0322 19.5678 18.6596 24.9404 12.0322 24.9404C5.40481 24.9404 0.0322266 19.5678 0.0322266 12.9404Z" fill="#898989"/>
<path fill-rule="evenodd" clip-rule="evenodd" d="M10.1959 8.25098H7.06641L10.7769 13.1265L7.30377 17.2165H8.90848L11.5354 14.1231L13.8679 17.1881H16.9974L13.1791 12.1708L13.1859 12.1795L16.4735 8.30793H14.8688L12.4273 11.183L10.1959 8.25098ZM8.79385 9.10484H9.76812L15.27 16.3342H14.2957L8.79385 9.10484Z" fill="#898989"/>
</svg>
